
A group of elite warriors are hunted by members of a merciless alien race known as Predators.


  
http://www.imdb.com/title/tt1424381/
MOVIEmeter: Up 114% in popularity this week.
User Rating:7.6/10 
Genre:Action | Adventure | Sci-Fi | Thriller


 
Video
ID : 0
Format : MPEG-4 Visual
Format profile : Advanced Simple@L5
Format settings, BVOP : Yes
Format settings, QPel : No
Format settings, GMC : No warppoints
Format settings, Matrix : Default (H.263)
Muxing mode : Packed bitstream
Codec ID : XVID
Codec ID/Hint : XviD
Duration : 1h 41mn
Bit rate : 1 786 Kbps
Width : 720 pixels
Height : 304 pixels
Display aspect ratio : 2.35:1
Frame rate : 25.000 fps
Resolution : 8 bits
Colorimetry : 4:2:0
Scan type : Progressive
Bits/(Pixel*Frame) : 0.326
Stream size : 1.26 GiB (93%)
Writing library : XviD 1.2.1 (UTC 2008-12-04)

Audio
ID : 1
Format : MPEG Audio
Format version : Version 1
Format profile : Layer 3
Mode : Joint stereo
Format_Settings_ModeExtension : MS Stereo
Codec ID : 55
Codec ID/Hint : MP3
Duration : 1h 41mn
Bit rate mode : Constant
Bit rate : 128 Kbps
Channel(s) : 2 channels
Sampling rate : 44.1 KHz
Stream size : 92.6 MiB (7%)
Alignment : Split accross interleaves
Interleave, duration : 40 ms (1.00 video frame)
Interleave, preload duration : 500 ms


 
screens COMING
========================================================
RELEASE NOTES
Work done:

based on a scale 1 thru 10.this one is video 6 audio 6 

Here we go with our version of Predator.Thanks to IMAGINE for the audio.Not the greatest
cam to work with.Its a dark movie to begin with but we think it came out pretty good.
we adjusted the aspect ratio and so forth.now we wasnt going to do it but with all the pms
we said why the hell not so here it is.did normal stuff we always do brightness,contrast,
saturation.black levels ect.Now we used the same audio as imagine so it has the same 
cam audio in the same places.hope you all enjoy.from team flawl3ss.

Audio and Video Info


Source...............: RelizLab

Original Audio....... Imagine

Container............: AVI

Audio Codec..........: MP3
Audio Bitrate........: 44
Channels.............: 2
Compression..........: Xvid 
Resolution...........: 720x304
Aspect ratio.........: 2.35
Bits/(Pixel*Frame)...: 0.309
Format Settings......: BVOP: YES | QPel: NO | GMC: NO 
Frame Rate...........: 25 fps 
Video Standard.......: NTSC

Language.............: English

Subtitles............: N/A

Encoder..............: BDK 
========================================================
uploaded through server for fast speedz